M48
;Layer_Color=9474304
;FILE_FORMAT=4:4
METRIC,LZ
;TYPE=PLATED
T1F00S00C0.3000
T2F00S00C0.7000
T3F00S00C0.8000
%
T01
X0009525Y000127
X0008255Y0005969
X0019558Y0013462
Y0015367
X0019304Y0021336
X0017907Y0022606
X001143Y0021971
X0010414Y0017145
X000762Y0018161
X0004953Y0018796
X000762Y0012319
T02
X0002794Y0003302
X0004953
X0002794Y0005842
Y0008382
X0011049Y0005969
Y0004064
X0021971Y0004826
X0023749
X0002794Y0015748
Y0018288
Y0020828
T03
X0013716Y001534
Y002022
M30
