G04 Layer_Color=8388736*
%FSLAX44Y44*%
%MOMM*%
G71*
G01*
G75*
%ADD29C,0.2540*%
%ADD42R,5.2032X1.6762*%
G04:AMPARAMS|DCode=43|XSize=0.7032mm|YSize=0.8032mm|CornerRadius=0mm|HoleSize=0mm|Usage=FLASHONLY|Rotation=315.000|XOffset=0mm|YOffset=0mm|HoleType=Round|Shape=Rectangle|*
%AMROTATEDRECTD43*
4,1,4,-0.5326,-0.0353,0.0353,0.5326,0.5326,0.0353,-0.0353,-0.5326,-0.5326,-0.0353,0.0*
%
%ADD43ROTATEDRECTD43*%

G04:AMPARAMS|DCode=44|XSize=0.5032mm|YSize=0.7032mm|CornerRadius=0mm|HoleSize=0mm|Usage=FLASHONLY|Rotation=45.000|XOffset=0mm|YOffset=0mm|HoleType=Round|Shape=Rectangle|*
%AMROTATEDRECTD44*
4,1,4,0.0707,-0.4265,-0.4265,0.0707,-0.0707,0.4265,0.4265,-0.0707,0.0707,-0.4265,0.0*
%
%ADD44ROTATEDRECTD44*%

%ADD45R,0.7032X0.8032*%
%ADD46R,2.2032X2.2032*%
%ADD47R,5.2032X1.2032*%
%ADD48R,5.2032X1.6032*%
%ADD49R,2.0032X1.4032*%
%ADD50R,0.8032X1.0032*%
%ADD51R,0.8032X0.7032*%
%ADD52R,1.0032X0.8032*%
%ADD53R,1.5032X1.2532*%
%ADD54O,0.8032X2.4032*%
%ADD55R,0.8032X1.5032*%
%ADD56O,0.8032X1.5032*%
G04:AMPARAMS|DCode=57|XSize=1.1532mm|YSize=1.1032mm|CornerRadius=0mm|HoleSize=0mm|Usage=FLASHONLY|Rotation=45.000|XOffset=0mm|YOffset=0mm|HoleType=Round|Shape=Rectangle|*
%AMROTATEDRECTD57*
4,1,4,-0.0177,-0.7978,-0.7978,-0.0177,0.0177,0.7978,0.7978,0.0177,-0.0177,-0.7978,0.0*
%
%ADD57ROTATEDRECTD57*%

%ADD58P,1.7353X8X112.5*%
%ADD59C,1.6032*%
%ADD60R,1.4032X1.4032*%
%ADD61C,1.4032*%
%ADD62C,0.8032*%
%ADD63C,1.4732*%
D29*
X12700Y254000D02*
G03*
X0Y241300I0J-12700D01*
G01*
X254000D02*
G03*
X241300Y254000I-12700J0D01*
G01*
Y0D02*
G03*
X254000Y12700I0J12700D01*
G01*
X0D02*
G03*
X12700Y0I12700J0D01*
G01*
X0Y130810D02*
Y241300D01*
X12700Y254000D02*
X241300D01*
X254000Y12700D02*
Y241300D01*
X12700Y0D02*
X241300D01*
X0Y12700D02*
Y132080D01*
D42*
X222250Y96520D02*
D03*
D43*
X178074Y194584D02*
D03*
X185146Y201656D02*
D03*
X156484Y213634D02*
D03*
X163556Y220706D02*
D03*
D44*
X165165Y204405D02*
D03*
X170115Y199455D02*
D03*
D45*
X116840Y138510D02*
D03*
Y148510D02*
D03*
X49530Y49610D02*
D03*
Y59610D02*
D03*
X60960Y223600D02*
D03*
Y233600D02*
D03*
X73660Y223600D02*
D03*
Y233600D02*
D03*
Y100250D02*
D03*
Y90250D02*
D03*
X13970Y129620D02*
D03*
Y139620D02*
D03*
X29210Y129620D02*
D03*
Y139620D02*
D03*
D46*
X173990Y124990D02*
D03*
Y164990D02*
D03*
D47*
X229000Y189230D02*
D03*
D48*
Y231730D02*
D03*
Y146730D02*
D03*
D49*
X199390Y38380D02*
D03*
Y73380D02*
D03*
D50*
X114300Y20740D02*
D03*
Y9740D02*
D03*
X105410Y124040D02*
D03*
Y135040D02*
D03*
X46990Y207860D02*
D03*
Y218860D02*
D03*
X130810Y9740D02*
D03*
Y20740D02*
D03*
D51*
X166290Y19050D02*
D03*
X156290D02*
D03*
X137240Y172720D02*
D03*
X147240D02*
D03*
X83740Y134620D02*
D03*
X73740D02*
D03*
X46910Y233680D02*
D03*
X36910D02*
D03*
D52*
X155360Y110490D02*
D03*
X144360D02*
D03*
X60110Y81280D02*
D03*
X49110D02*
D03*
X147740Y129540D02*
D03*
X136740D02*
D03*
X102020Y233680D02*
D03*
X91020D02*
D03*
D53*
X58420Y124050D02*
D03*
Y104550D02*
D03*
D54*
X168910Y90040D02*
D03*
X156210D02*
D03*
X143510D02*
D03*
X130810D02*
D03*
X168910Y42040D02*
D03*
X156210D02*
D03*
X143510D02*
D03*
X130810D02*
D03*
D55*
X100330Y205670D02*
D03*
D56*
X87630D02*
D03*
X74930D02*
D03*
X62230D02*
D03*
X100330Y153670D02*
D03*
X87630Y153670D02*
D03*
X74930Y153670D02*
D03*
X62230Y153670D02*
D03*
D57*
X36830Y100330D02*
D03*
X24809Y112351D02*
D03*
D58*
X137160Y153400D02*
D03*
D59*
Y202200D02*
D03*
D60*
X27940Y157480D02*
D03*
Y33020D02*
D03*
D61*
Y182880D02*
D03*
Y208280D02*
D03*
Y58420D02*
D03*
Y83820D02*
D03*
D62*
X193040Y213360D02*
D03*
X76200Y123190D02*
D03*
X114300Y219710D02*
D03*
X195580Y153670D02*
D03*
X49530Y187960D02*
D03*
X82550Y59690D02*
D03*
X95250Y12700D02*
D03*
X104140Y171450D02*
D03*
X179070Y226060D02*
D03*
X195580Y134620D02*
D03*
X76200Y181610D02*
D03*
D63*
X237490Y48260D02*
D03*
X219710D02*
D03*
X110490Y40640D02*
D03*
Y59690D02*
D03*
X49530Y33020D02*
D03*
M02*
