G04 Layer_Color=16711935*
%FSLAX44Y44*%
%MOMM*%
G71*
G01*
G75*
%ADD29C,0.2540*%
%ADD42R,5.2032X1.6762*%
%ADD45R,0.7032X0.8032*%
%ADD48R,5.2032X1.6032*%
%ADD51R,0.8032X0.7032*%
%ADD58P,1.7353X8X112.5*%
%ADD59C,1.6032*%
%ADD60R,1.4032X1.4032*%
%ADD61C,1.4032*%
%ADD62C,0.8032*%
%ADD63C,1.4732*%
%ADD64R,3.6032X2.0032*%
%ADD65R,0.7032X1.6762*%
D29*
X12700Y254000D02*
G03*
X0Y241300I0J-12700D01*
G01*
X254000D02*
G03*
X241300Y254000I-12700J0D01*
G01*
Y0D02*
G03*
X254000Y12700I0J12700D01*
G01*
X0D02*
G03*
X12700Y0I12700J0D01*
G01*
X0Y130810D02*
Y241300D01*
X12700Y254000D02*
X241300D01*
X254000Y12700D02*
Y241300D01*
X12700Y0D02*
X241300D01*
X0Y12700D02*
Y132080D01*
D42*
X222250Y118110D02*
D03*
D45*
X92710Y101680D02*
D03*
Y111680D02*
D03*
X87630Y180260D02*
D03*
Y170260D02*
D03*
D48*
X229000Y231730D02*
D03*
Y146730D02*
D03*
D51*
X81200Y21590D02*
D03*
X71200D02*
D03*
D58*
X137160Y153400D02*
D03*
D59*
Y202200D02*
D03*
D60*
X27940Y157480D02*
D03*
Y33020D02*
D03*
D61*
Y182880D02*
D03*
Y208280D02*
D03*
Y58420D02*
D03*
Y83820D02*
D03*
D62*
X193040Y213360D02*
D03*
X76200Y123190D02*
D03*
X114300Y219710D02*
D03*
X195580Y153670D02*
D03*
X49530Y187960D02*
D03*
X82550Y59690D02*
D03*
X95250Y12700D02*
D03*
X104140Y171450D02*
D03*
X179070Y226060D02*
D03*
X195580Y134620D02*
D03*
X76200Y181610D02*
D03*
D63*
X237490Y48260D02*
D03*
X219710D02*
D03*
X110490Y40640D02*
D03*
Y59690D02*
D03*
X49530Y33020D02*
D03*
D64*
X215900Y22880D02*
D03*
Y88880D02*
D03*
X139700Y96480D02*
D03*
Y30480D02*
D03*
D65*
X92050Y41010D02*
D03*
X73050D02*
D03*
X92050Y80010D02*
D03*
X82550Y80010D02*
D03*
X73050Y80010D02*
D03*
M02*
