G04 Layer_Physical_Order=2*
G04 Layer_Color=16711680*
%FSLAX44Y44*%
%MOMM*%
G71*
G01*
G75*
%ADD10R,5.0000X1.4730*%
%ADD13R,0.5000X0.6000*%
%ADD16R,5.0000X1.4000*%
%ADD19R,0.6000X0.5000*%
%ADD27C,0.4000*%
%ADD28C,0.6000*%
%ADD29C,0.2540*%
%ADD31P,1.5154X8X112.5*%
%ADD32C,1.4000*%
%ADD33R,1.2000X1.2000*%
%ADD34C,1.2000*%
%ADD35C,0.6000*%
%ADD36C,1.2700*%
%ADD37R,3.4000X1.8000*%
%ADD38R,0.5000X1.4730*%
G36*
X245376Y254737D02*
X247919Y253683D01*
X250208Y252154D01*
X252154Y250208D01*
X253683Y247919D01*
X254737Y245376D01*
X255274Y242676D01*
Y242345D01*
X254004Y241319D01*
X254000Y241320D01*
X204000D01*
X203009Y241123D01*
X202169Y240561D01*
X201607Y239721D01*
X201410Y238730D01*
Y224730D01*
X201607Y223739D01*
X202169Y222899D01*
X203009Y222337D01*
X204000Y222140D01*
X254000D01*
X254004Y222141D01*
X255274Y221115D01*
Y157345D01*
X254004Y156319D01*
X254000Y156320D01*
X204000D01*
X203009Y156123D01*
X202169Y155561D01*
X202152Y155536D01*
X200804Y155805D01*
X200799Y155832D01*
X199574Y157664D01*
X197742Y158889D01*
X196850Y159066D01*
Y153670D01*
Y148274D01*
X197742Y148451D01*
X199574Y149676D01*
X200140Y150523D01*
X201410Y150138D01*
Y139730D01*
X201607Y138739D01*
X202169Y137899D01*
X203009Y137337D01*
X204000Y137140D01*
X254000D01*
X254004Y137141D01*
X255274Y136115D01*
Y12700D01*
Y11324D01*
X254737Y8624D01*
X253683Y6081D01*
X252154Y3792D01*
X250208Y1846D01*
X247919Y317D01*
X245376Y-737D01*
X242676Y-1274D01*
X11324D01*
X8624Y-737D01*
X6081Y317D01*
X3792Y1846D01*
X1846Y3792D01*
X317Y6081D01*
X-737Y8624D01*
X-1274Y11324D01*
Y12700D01*
Y241300D01*
Y242676D01*
X-737Y245376D01*
X317Y247919D01*
X1846Y250208D01*
X3792Y252154D01*
X6081Y253683D01*
X8624Y254737D01*
X11324Y255274D01*
X242676D01*
X245376Y254737D01*
D02*
G37*
%LPC*%
G36*
X87946Y58420D02*
X83820D01*
Y54294D01*
X84712Y54471D01*
X86544Y55696D01*
X87769Y57528D01*
X87946Y58420D01*
D02*
G37*
G36*
X26670Y66866D02*
X25711Y66740D01*
X23633Y65880D01*
X21849Y64511D01*
X20480Y62727D01*
X19620Y60649D01*
X19493Y59690D01*
X26670D01*
Y66866D01*
D02*
G37*
G36*
X29210D02*
Y59690D01*
X36386D01*
X36260Y60649D01*
X35400Y62727D01*
X34031Y64511D01*
X32247Y65880D01*
X30169Y66740D01*
X29210Y66866D01*
D02*
G37*
G36*
X81280Y58420D02*
X77154D01*
X77331Y57528D01*
X78556Y55696D01*
X80388Y54471D01*
X81280Y54294D01*
Y58420D01*
D02*
G37*
G36*
X26670Y57150D02*
X19493D01*
X19620Y56191D01*
X20480Y54113D01*
X21849Y52329D01*
X23633Y50960D01*
X25711Y50100D01*
X26670Y49974D01*
Y57150D01*
D02*
G37*
G36*
X36386D02*
X29210D01*
Y49974D01*
X30169Y50100D01*
X32247Y50960D01*
X34031Y52329D01*
X35400Y54113D01*
X36260Y56191D01*
X36386Y57150D01*
D02*
G37*
G36*
X236220Y57059D02*
X235169Y56921D01*
X233007Y56025D01*
X231150Y54600D01*
X229725Y52743D01*
X229287Y51688D01*
X227913D01*
X227475Y52743D01*
X226050Y54600D01*
X224193Y56025D01*
X222031Y56921D01*
X220980Y57059D01*
Y48260D01*
Y39460D01*
X222031Y39599D01*
X224193Y40495D01*
X226050Y41920D01*
X227475Y43777D01*
X227913Y44832D01*
X229287D01*
X229725Y43777D01*
X231150Y41920D01*
X233007Y40495D01*
X235169Y39599D01*
X236220Y39460D01*
Y48260D01*
Y57059D01*
D02*
G37*
G36*
X81280Y65086D02*
X80388Y64909D01*
X78556Y63684D01*
X77331Y61852D01*
X77154Y60960D01*
X81280D01*
Y65086D01*
D02*
G37*
G36*
X95210Y117270D02*
X93980D01*
Y112950D01*
X97800D01*
Y114680D01*
X97603Y115671D01*
X97041Y116511D01*
X96201Y117073D01*
X95210Y117270D01*
D02*
G37*
G36*
X74930Y121920D02*
X70804D01*
X70981Y121028D01*
X72206Y119196D01*
X74038Y117971D01*
X74930Y117794D01*
Y121920D01*
D02*
G37*
G36*
X81596D02*
X77470D01*
Y117794D01*
X78362Y117971D01*
X80194Y119196D01*
X81419Y121028D01*
X81596Y121920D01*
D02*
G37*
G36*
X91440Y117270D02*
X90210D01*
X89219Y117073D01*
X88379Y116511D01*
X87817Y115671D01*
X87620Y114680D01*
Y112950D01*
X91440D01*
Y117270D01*
D02*
G37*
G36*
X83820Y65086D02*
Y60960D01*
X87946D01*
X87769Y61852D01*
X86544Y63684D01*
X84712Y64909D01*
X83820Y65086D01*
D02*
G37*
G36*
X27940Y92434D02*
X25711Y92140D01*
X23633Y91280D01*
X21849Y89911D01*
X20480Y88127D01*
X19620Y86049D01*
X19326Y83820D01*
X19620Y81591D01*
X20480Y79513D01*
X21849Y77729D01*
X23633Y76360D01*
X25711Y75500D01*
X27940Y75206D01*
X30169Y75500D01*
X32247Y76360D01*
X34031Y77729D01*
X35400Y79513D01*
X36260Y81591D01*
X36554Y83820D01*
X36260Y86049D01*
X35400Y88127D01*
X34031Y89911D01*
X32247Y91280D01*
X30169Y92140D01*
X27940Y92434D01*
D02*
G37*
G36*
X97800Y110410D02*
X92710D01*
X87620D01*
Y108680D01*
X87817Y107689D01*
X88379Y106849D01*
Y106511D01*
X87817Y105671D01*
X87620Y104680D01*
Y103689D01*
X80010D01*
X80010Y103689D01*
X78239Y103337D01*
X76737Y102333D01*
X76737Y102333D01*
X69777Y95373D01*
X68773Y93871D01*
X68421Y92100D01*
X68421Y92100D01*
Y88761D01*
X68157Y88366D01*
X67960Y87375D01*
Y72645D01*
X68157Y71654D01*
X68719Y70814D01*
X69559Y70252D01*
X70550Y70055D01*
X75550D01*
X76541Y70252D01*
X76904Y70495D01*
X78219Y70814D01*
X79059Y70252D01*
X80050Y70055D01*
X81280D01*
Y80010D01*
X83820D01*
Y70055D01*
X85050D01*
X86041Y70252D01*
X86404Y70495D01*
X87300Y70712D01*
X88196Y70495D01*
X88559Y70252D01*
X89550Y70055D01*
X94550D01*
X95541Y70252D01*
X96381Y70814D01*
X96943Y71654D01*
X97140Y72645D01*
Y87375D01*
X96943Y88366D01*
X96679Y88761D01*
Y94431D01*
X103443D01*
X105861Y92013D01*
Y68580D01*
X105861Y68580D01*
X105861Y68580D01*
Y67344D01*
X104150Y66030D01*
X102725Y64173D01*
X101829Y62011D01*
X101523Y59690D01*
X101829Y57369D01*
X102725Y55207D01*
X104150Y53350D01*
X106007Y51925D01*
X108169Y51029D01*
X109845Y50808D01*
X109866Y50805D01*
Y49525D01*
X109845Y49522D01*
X108169Y49301D01*
X106007Y48405D01*
X104150Y46980D01*
X102725Y45123D01*
X101829Y42961D01*
X101523Y40640D01*
X101829Y38319D01*
X102725Y36157D01*
X104150Y34300D01*
X105861Y32986D01*
Y30480D01*
X105861Y30480D01*
X106213Y28709D01*
X107217Y27207D01*
X113547Y20877D01*
X113547Y20877D01*
X115049Y19873D01*
X116820Y19521D01*
X121060D01*
X121709Y19087D01*
X122700Y18890D01*
X156700D01*
X157691Y19087D01*
X158531Y19649D01*
X159093Y20489D01*
X159290Y21480D01*
Y39480D01*
X159093Y40471D01*
X158531Y41311D01*
X157691Y41873D01*
X156700Y42070D01*
X122700D01*
X121709Y41873D01*
X120869Y41311D01*
X120685Y41037D01*
X119364Y41345D01*
X119151Y42961D01*
X118255Y45123D01*
X116830Y46980D01*
X114973Y48405D01*
X112811Y49301D01*
X111135Y49522D01*
X111114Y49525D01*
Y50805D01*
X111135Y50808D01*
X112811Y51029D01*
X114973Y51925D01*
X116830Y53350D01*
X118255Y55207D01*
X119151Y57369D01*
X119457Y59690D01*
X119151Y62011D01*
X118255Y64173D01*
X117451Y65221D01*
X118078Y66491D01*
X213360D01*
X213360Y66491D01*
X215131Y66843D01*
X216633Y67847D01*
X219173Y70387D01*
X219173Y70387D01*
X220177Y71889D01*
X220529Y73660D01*
X220529Y73660D01*
Y77290D01*
X232900D01*
X233891Y77487D01*
X234731Y78049D01*
X235293Y78889D01*
X235490Y79880D01*
Y97880D01*
X235293Y98871D01*
X234731Y99711D01*
X233891Y100273D01*
X232900Y100470D01*
X198900D01*
X197909Y100273D01*
X197069Y99711D01*
X196507Y98871D01*
X196310Y97880D01*
Y79880D01*
X196507Y78889D01*
X197069Y78049D01*
X197909Y77487D01*
X198900Y77290D01*
X211271D01*
Y75749D01*
X115119D01*
Y93980D01*
X114767Y95751D01*
X113763Y97253D01*
X113612Y97354D01*
X108633Y102333D01*
X107131Y103337D01*
X105360Y103689D01*
X105360Y103689D01*
X97800D01*
Y104680D01*
X97603Y105671D01*
X97041Y106511D01*
Y106849D01*
X97603Y107689D01*
X97800Y108680D01*
Y110410D01*
D02*
G37*
G36*
X93980Y18096D02*
X93088Y17919D01*
X91256Y16694D01*
X90031Y14862D01*
X89854Y13970D01*
X93980D01*
Y18096D01*
D02*
G37*
G36*
X96520D02*
Y13970D01*
X100646D01*
X100469Y14862D01*
X99244Y16694D01*
X97412Y17919D01*
X96520Y18096D01*
D02*
G37*
G36*
X69930Y20320D02*
X65610D01*
Y19090D01*
X65807Y18099D01*
X66369Y17259D01*
X67209Y16697D01*
X68200Y16500D01*
X69930D01*
Y20320D01*
D02*
G37*
G36*
X235490Y21610D02*
X217170D01*
Y11290D01*
X232900D01*
X233891Y11487D01*
X234731Y12049D01*
X235293Y12889D01*
X235490Y13880D01*
Y21610D01*
D02*
G37*
G36*
X93980Y11430D02*
X89854D01*
X90031Y10538D01*
X91256Y8706D01*
X93088Y7481D01*
X93980Y7304D01*
Y11430D01*
D02*
G37*
G36*
X100646D02*
X96520D01*
Y7304D01*
X97412Y7481D01*
X99244Y8706D01*
X100469Y10538D01*
X100646Y11430D01*
D02*
G37*
G36*
X214630Y21610D02*
X196310D01*
Y13880D01*
X196507Y12889D01*
X197069Y12049D01*
X197909Y11487D01*
X198900Y11290D01*
X214630D01*
Y21610D01*
D02*
G37*
G36*
X69930Y26680D02*
X68200D01*
X67209Y26483D01*
X66369Y25921D01*
X65807Y25081D01*
X65610Y24090D01*
Y22860D01*
X69930D01*
Y26680D01*
D02*
G37*
G36*
X246290Y46990D02*
X238760D01*
Y39460D01*
X239811Y39599D01*
X241973Y40495D01*
X243830Y41920D01*
X245255Y43777D01*
X246151Y45939D01*
X246290Y46990D01*
D02*
G37*
G36*
X218440Y57059D02*
X217389Y56921D01*
X215227Y56025D01*
X213370Y54600D01*
X211945Y52743D01*
X211049Y50581D01*
X210910Y49530D01*
X218440D01*
Y57059D01*
D02*
G37*
G36*
X238760D02*
Y49530D01*
X246290D01*
X246151Y50581D01*
X245255Y52743D01*
X243830Y54600D01*
X241973Y56025D01*
X239811Y56921D01*
X238760Y57059D01*
D02*
G37*
G36*
X218440Y46990D02*
X210910D01*
X211049Y45939D01*
X211945Y43777D01*
X213370Y41920D01*
X215227Y40495D01*
X217389Y39599D01*
X218440Y39460D01*
Y46990D01*
D02*
G37*
G36*
X214630Y34470D02*
X198900D01*
X197909Y34273D01*
X197069Y33711D01*
X196507Y32871D01*
X196310Y31880D01*
Y24150D01*
X214630D01*
Y34470D01*
D02*
G37*
G36*
X232900D02*
X217170D01*
Y24150D01*
X235490D01*
Y31880D01*
X235293Y32871D01*
X234731Y33711D01*
X233891Y34273D01*
X232900Y34470D01*
D02*
G37*
G36*
X94550Y50965D02*
X89550D01*
X88559Y50768D01*
X87719Y50206D01*
X87157Y49366D01*
X86960Y48375D01*
Y33645D01*
X87157Y32654D01*
X87719Y31814D01*
X88081Y31572D01*
Y29857D01*
X84787Y26563D01*
X84200Y26680D01*
X78200D01*
X77209Y26483D01*
X76369Y25921D01*
X76031D01*
X75191Y26483D01*
X74200Y26680D01*
X72470D01*
Y21590D01*
Y16500D01*
X74200D01*
X75191Y16697D01*
X76031Y17259D01*
X76369D01*
X77209Y16697D01*
X78200Y16500D01*
X84200D01*
X85191Y16697D01*
X85586Y16961D01*
X86360D01*
X86360Y16961D01*
X88131Y17313D01*
X89633Y18317D01*
X95983Y24667D01*
X95983Y24667D01*
X96987Y26168D01*
X97339Y27940D01*
Y35980D01*
X97140Y36981D01*
Y48375D01*
X96943Y49366D01*
X96381Y50206D01*
X95541Y50768D01*
X94550Y50965D01*
D02*
G37*
G36*
X200976Y133350D02*
X190184D01*
X190361Y132458D01*
X191586Y130626D01*
X193418Y129401D01*
X195580Y128972D01*
X195892Y129033D01*
X196259Y127868D01*
X195419Y127306D01*
X194857Y126466D01*
X194660Y125475D01*
Y122739D01*
X187960D01*
X187960Y122739D01*
X186189Y122387D01*
X184687Y121383D01*
X184687Y121383D01*
X164413Y101109D01*
X159290D01*
Y105480D01*
X159093Y106471D01*
X158531Y107311D01*
X157691Y107873D01*
X156700Y108070D01*
X122700D01*
X121709Y107873D01*
X120869Y107311D01*
X120307Y106471D01*
X120110Y105480D01*
Y87480D01*
X120307Y86489D01*
X120869Y85649D01*
X121709Y85087D01*
X122700Y84890D01*
X156700D01*
X157691Y85087D01*
X158531Y85649D01*
X159093Y86489D01*
X159290Y87480D01*
Y91851D01*
X166330D01*
X166330Y91851D01*
X168102Y92203D01*
X169603Y93207D01*
X189877Y113481D01*
X194660D01*
Y110745D01*
X194857Y109754D01*
X195419Y108914D01*
X196259Y108352D01*
X197250Y108155D01*
X247250D01*
X248241Y108352D01*
X249081Y108914D01*
X249643Y109754D01*
X249840Y110745D01*
Y125475D01*
X249643Y126466D01*
X249081Y127306D01*
X248241Y127868D01*
X247250Y128065D01*
X197531D01*
X197406Y129335D01*
X197742Y129401D01*
X199574Y130626D01*
X200799Y132458D01*
X200976Y133350D01*
D02*
G37*
G36*
X27940Y216894D02*
X25711Y216600D01*
X23633Y215740D01*
X21849Y214371D01*
X20480Y212587D01*
X19620Y210509D01*
X19326Y208280D01*
X19620Y206051D01*
X20480Y203973D01*
X21849Y202189D01*
X23633Y200820D01*
X25711Y199960D01*
X27940Y199666D01*
X30169Y199960D01*
X32247Y200820D01*
X34031Y202189D01*
X35400Y203973D01*
X36260Y206051D01*
X36554Y208280D01*
X36260Y210509D01*
X35400Y212587D01*
X34031Y214371D01*
X32247Y215740D01*
X30169Y216600D01*
X27940Y216894D01*
D02*
G37*
G36*
X191770Y212090D02*
X187644D01*
X187821Y211198D01*
X189046Y209366D01*
X190878Y208141D01*
X191770Y207964D01*
Y212090D01*
D02*
G37*
G36*
X198436D02*
X194310D01*
Y207964D01*
X195202Y208141D01*
X197034Y209366D01*
X198259Y211198D01*
X198436Y212090D01*
D02*
G37*
G36*
X50800Y193356D02*
Y189230D01*
X54926D01*
X54749Y190122D01*
X53524Y191954D01*
X51692Y193179D01*
X50800Y193356D01*
D02*
G37*
G36*
X54926Y186690D02*
X50800D01*
Y182564D01*
X51692Y182741D01*
X53524Y183966D01*
X54749Y185798D01*
X54926Y186690D01*
D02*
G37*
G36*
X74930Y187006D02*
X74038Y186829D01*
X72206Y185604D01*
X70981Y183772D01*
X70804Y182880D01*
X74930D01*
Y187006D01*
D02*
G37*
G36*
X48260Y193356D02*
X47368Y193179D01*
X45536Y191954D01*
X44311Y190122D01*
X44134Y189230D01*
X48260D01*
Y193356D01*
D02*
G37*
G36*
X199373Y251756D02*
X115570D01*
Y228600D01*
X138430D01*
Y212618D01*
X137475Y211781D01*
X137160Y211822D01*
X134670Y211494D01*
X132349Y210533D01*
X130356Y209004D01*
X128827Y207011D01*
X127866Y204690D01*
X127538Y202200D01*
X127866Y199710D01*
X128827Y197389D01*
X130356Y195396D01*
X132349Y193867D01*
X134670Y192906D01*
X137160Y192578D01*
X139650Y192906D01*
X141971Y193867D01*
X143964Y195396D01*
X145493Y197389D01*
X146454Y199710D01*
X146782Y202200D01*
X146454Y204690D01*
X145931Y205954D01*
X146637Y207010D01*
X176748D01*
Y219579D01*
X177800Y220442D01*
Y226060D01*
X179070D01*
Y227330D01*
X184466D01*
X185447Y228600D01*
X199373D01*
Y251756D01*
D02*
G37*
G36*
X184466Y224790D02*
X180340D01*
Y220664D01*
X181232Y220841D01*
X183064Y222066D01*
X184289Y223898D01*
X184466Y224790D01*
D02*
G37*
G36*
X113030Y225106D02*
X112138Y224929D01*
X110306Y223704D01*
X109081Y221872D01*
X108904Y220980D01*
X113030D01*
Y225106D01*
D02*
G37*
G36*
X115570D02*
Y220980D01*
X119696D01*
X119519Y221872D01*
X118294Y223704D01*
X116462Y224929D01*
X115570Y225106D01*
D02*
G37*
G36*
X194310Y218756D02*
Y214630D01*
X198436D01*
X198259Y215522D01*
X197034Y217354D01*
X195202Y218579D01*
X194310Y218756D01*
D02*
G37*
G36*
X113030Y218440D02*
X108904D01*
X109081Y217548D01*
X110306Y215716D01*
X112138Y214491D01*
X113030Y214314D01*
Y218440D01*
D02*
G37*
G36*
X119696D02*
X115570D01*
Y214314D01*
X116462Y214491D01*
X118294Y215716D01*
X119519Y217548D01*
X119696Y218440D01*
D02*
G37*
G36*
X191770Y218756D02*
X190878Y218579D01*
X189046Y217354D01*
X187821Y215522D01*
X187644Y214630D01*
X191770D01*
Y218756D01*
D02*
G37*
G36*
X140660Y162990D02*
X133660D01*
X132669Y162793D01*
X131829Y162231D01*
X128329Y158731D01*
X127767Y157891D01*
X127570Y156900D01*
Y149900D01*
X127767Y148909D01*
X128329Y148069D01*
X131829Y144569D01*
X132669Y144007D01*
X133660Y143810D01*
X140660D01*
X141651Y144007D01*
X142491Y144569D01*
X145991Y148069D01*
X146553Y148909D01*
X146750Y149900D01*
Y156900D01*
X146553Y157891D01*
X145991Y158731D01*
X142491Y162231D01*
X141651Y162793D01*
X140660Y162990D01*
D02*
G37*
G36*
X194310Y152400D02*
X190184D01*
X190361Y151508D01*
X191586Y149676D01*
X193418Y148451D01*
X194310Y148274D01*
Y152400D01*
D02*
G37*
G36*
X26670Y156210D02*
X19350D01*
Y151480D01*
X19547Y150489D01*
X20109Y149649D01*
X20949Y149087D01*
X21940Y148890D01*
X26670D01*
Y156210D01*
D02*
G37*
G36*
X196850Y140016D02*
Y135890D01*
X200976D01*
X200799Y136782D01*
X199574Y138614D01*
X197742Y139839D01*
X196850Y140016D01*
D02*
G37*
G36*
X74930Y128586D02*
X74038Y128409D01*
X72206Y127184D01*
X70981Y125352D01*
X70804Y124460D01*
X74930D01*
Y128586D01*
D02*
G37*
G36*
X77470D02*
Y124460D01*
X81596D01*
X81419Y125352D01*
X80194Y127184D01*
X78362Y128409D01*
X77470Y128586D01*
D02*
G37*
G36*
X194310Y140016D02*
X193418Y139839D01*
X191586Y138614D01*
X190361Y136782D01*
X190184Y135890D01*
X194310D01*
Y140016D01*
D02*
G37*
G36*
Y159066D02*
X193418Y158889D01*
X191586Y157664D01*
X190361Y155832D01*
X190184Y154940D01*
X194310D01*
Y159066D01*
D02*
G37*
G36*
X74930Y180340D02*
X70804D01*
X70981Y179448D01*
X72206Y177616D01*
X74038Y176391D01*
X74930Y176214D01*
Y180340D01*
D02*
G37*
G36*
X90130Y185850D02*
X88900D01*
Y181530D01*
X92720D01*
Y183260D01*
X92523Y184251D01*
X91961Y185091D01*
X91121Y185653D01*
X90130Y185850D01*
D02*
G37*
G36*
X48260Y186690D02*
X44134D01*
X44311Y185798D01*
X45536Y183966D01*
X47368Y182741D01*
X48260Y182564D01*
Y186690D01*
D02*
G37*
G36*
X27940Y191494D02*
X25711Y191200D01*
X23633Y190340D01*
X21849Y188971D01*
X20480Y187187D01*
X19620Y185109D01*
X19326Y182880D01*
X19620Y180651D01*
X20480Y178573D01*
X21849Y176789D01*
X23633Y175420D01*
X25711Y174560D01*
X27940Y174266D01*
X30169Y174560D01*
X32247Y175420D01*
X34031Y176789D01*
X35400Y178573D01*
X36260Y180651D01*
X36554Y182880D01*
X36260Y185109D01*
X35400Y187187D01*
X34031Y188971D01*
X32247Y190340D01*
X30169Y191200D01*
X27940Y191494D01*
D02*
G37*
G36*
X26670Y166070D02*
X21940D01*
X20949Y165873D01*
X20109Y165311D01*
X19547Y164471D01*
X19350Y163480D01*
Y158750D01*
X26670D01*
Y166070D01*
D02*
G37*
G36*
X33940D02*
X29210D01*
Y158750D01*
X36530D01*
Y163480D01*
X36333Y164471D01*
X35771Y165311D01*
X34931Y165873D01*
X33940Y166070D01*
D02*
G37*
G36*
X77470Y187006D02*
Y181610D01*
Y176214D01*
X78362Y176391D01*
X80194Y177616D01*
X81270Y179226D01*
X82321Y179100D01*
X82540Y179015D01*
Y177260D01*
X82737Y176269D01*
X83299Y175429D01*
Y175091D01*
X82737Y174251D01*
X82596Y173539D01*
X59690D01*
X59690Y173539D01*
X57919Y173187D01*
X56417Y172183D01*
X56417Y172183D01*
X37703Y153469D01*
X36530Y153955D01*
Y156210D01*
X29210D01*
Y148890D01*
X31465D01*
X31951Y147717D01*
X8157Y123923D01*
X7153Y122421D01*
X6801Y120650D01*
X6801Y120650D01*
Y36830D01*
X6801Y36830D01*
X7153Y35059D01*
X8157Y33557D01*
X11967Y29747D01*
X13469Y28743D01*
X15240Y28391D01*
X15240Y28391D01*
X19350D01*
Y27020D01*
X19547Y26029D01*
X20109Y25189D01*
X20949Y24627D01*
X21940Y24430D01*
X33940D01*
X34931Y24627D01*
X35771Y25189D01*
X36333Y26029D01*
X36530Y27020D01*
Y28391D01*
X41876D01*
X43190Y26680D01*
X45047Y25255D01*
X47209Y24359D01*
X49530Y24053D01*
X51851Y24359D01*
X54013Y25255D01*
X55870Y26680D01*
X57184Y28391D01*
X72390D01*
X72390Y28391D01*
X74161Y28743D01*
X75663Y29747D01*
X76323Y30407D01*
X77168Y31671D01*
X77381Y31814D01*
X77943Y32654D01*
X78140Y33645D01*
Y48375D01*
X77943Y49366D01*
X77381Y50206D01*
X76541Y50768D01*
X75550Y50965D01*
X70550D01*
X69559Y50768D01*
X68719Y50206D01*
X68157Y49366D01*
X67960Y48375D01*
Y37649D01*
X57184D01*
X55870Y39360D01*
X54013Y40785D01*
X51851Y41681D01*
X49530Y41987D01*
X47209Y41681D01*
X45047Y40785D01*
X43190Y39360D01*
X41876Y37649D01*
X36530D01*
Y39020D01*
X36333Y40011D01*
X35771Y40851D01*
X34931Y41413D01*
X33940Y41610D01*
X21940D01*
X20949Y41413D01*
X20109Y40851D01*
X19547Y40011D01*
X19350Y39020D01*
Y37649D01*
X17157D01*
X16059Y38747D01*
Y118733D01*
X61607Y164281D01*
X89666D01*
X90548Y163691D01*
X92710Y163261D01*
X94872Y163691D01*
X96704Y164916D01*
X97590Y165802D01*
X104140D01*
X106302Y166231D01*
X108134Y167456D01*
X109359Y169288D01*
X109789Y171450D01*
X109359Y173612D01*
X108134Y175444D01*
X106302Y176669D01*
X104140Y177099D01*
X95250D01*
X93930Y176836D01*
X93687Y176921D01*
X92720Y177833D01*
Y178990D01*
X87630D01*
Y180260D01*
X86360D01*
Y185850D01*
X85130D01*
X84139Y185653D01*
X83299Y185091D01*
X82737Y184251D01*
X82678Y183951D01*
X81708Y183813D01*
X81363Y183854D01*
X80194Y185604D01*
X78362Y186829D01*
X77470Y187006D01*
D02*
G37*
%LPD*%
D10*
X222250Y118110D02*
D03*
D13*
X92710Y101680D02*
D03*
Y111680D02*
D03*
X87630Y180260D02*
D03*
Y170260D02*
D03*
D16*
X229000Y231730D02*
D03*
Y146730D02*
D03*
D19*
X81200Y21590D02*
D03*
X71200D02*
D03*
D27*
X213360Y71120D02*
X215900Y73660D01*
X113030Y71120D02*
X213360D01*
X110490Y68580D02*
X113030Y71120D01*
X110490Y68580D02*
Y93980D01*
Y59690D02*
Y68580D01*
X215900Y73660D02*
Y88880D01*
X73050Y92100D02*
X80010Y99060D01*
X73050Y80010D02*
Y92100D01*
X80010Y99060D02*
X91440D01*
X92050Y98450D01*
Y80010D02*
Y98450D01*
X187960Y118110D02*
X222250D01*
X166330Y96480D02*
X187960Y118110D01*
X139700Y96480D02*
X166330D01*
X86360Y21590D02*
X92710Y27940D01*
X81200Y21590D02*
X86360D01*
X92710Y27940D02*
Y35980D01*
X73050Y33680D02*
Y41010D01*
X72390Y33020D02*
X73050Y33680D01*
X49530Y33020D02*
X72390D01*
X110490Y30480D02*
Y40640D01*
Y30480D02*
X116820Y24150D01*
X138430D01*
X91440Y99060D02*
X105360D01*
X110440Y93980D01*
X110490D01*
X59690Y168910D02*
X92710D01*
X27940Y33020D02*
X49530D01*
X11430Y120650D02*
X59690Y168910D01*
X11430Y36830D02*
Y120650D01*
Y36830D02*
X15240Y33020D01*
X27940D01*
D28*
X92710Y168910D02*
X95250Y171450D01*
X104140D01*
D29*
X145676Y227252D02*
Y222920D01*
X143510Y220754D01*
X152174Y212090D02*
X156506D01*
X154340D01*
Y225086D01*
X152174Y222920D01*
X163004Y225086D02*
X171668D01*
Y222920D01*
X163004Y214256D01*
Y212090D01*
X127148Y246676D02*
X122816D01*
X120650Y244510D01*
Y235846D01*
X122816Y233680D01*
X127148D01*
X129314Y235846D01*
Y244510D01*
X127148Y246676D01*
X133646D02*
Y233680D01*
Y240178D01*
X142310D01*
Y246676D01*
Y233680D01*
X155306D02*
X146642D01*
X155306Y242344D01*
Y244510D01*
X153139Y246676D01*
X148808D01*
X146642Y244510D01*
X168301Y246676D02*
X159637D01*
Y240178D01*
X163969D01*
X159637D01*
Y233680D01*
X172633Y246676D02*
X181297D01*
X176965D01*
Y233680D01*
X194293Y244510D02*
X192127Y246676D01*
X187795D01*
X185629Y244510D01*
Y235846D01*
X187795Y233680D01*
X192127D01*
X194293Y235846D01*
Y240178D01*
X189961D01*
X12700Y254000D02*
G03*
X0Y241300I0J-12700D01*
G01*
X254000D02*
G03*
X241300Y254000I-12700J0D01*
G01*
Y0D02*
G03*
X254000Y12700I0J12700D01*
G01*
X0D02*
G03*
X12700Y0I12700J0D01*
G01*
X0Y130810D02*
Y241300D01*
X12700Y254000D02*
X241300D01*
X254000Y12700D02*
Y241300D01*
X12700Y0D02*
X241300D01*
X0Y12700D02*
Y132080D01*
D31*
X137160Y153400D02*
D03*
D32*
Y202200D02*
D03*
D33*
X27940Y157480D02*
D03*
Y33020D02*
D03*
D34*
Y182880D02*
D03*
Y208280D02*
D03*
Y58420D02*
D03*
Y83820D02*
D03*
D35*
X193040Y213360D02*
D03*
X76200Y123190D02*
D03*
X114300Y219710D02*
D03*
X195580Y153670D02*
D03*
X49530Y187960D02*
D03*
X82550Y59690D02*
D03*
X95250Y12700D02*
D03*
X104140Y171450D02*
D03*
X179070Y226060D02*
D03*
X195580Y134620D02*
D03*
X76200Y181610D02*
D03*
D36*
X237490Y48260D02*
D03*
X219710D02*
D03*
X110490Y40640D02*
D03*
Y59690D02*
D03*
X49530Y33020D02*
D03*
D37*
X215900Y22880D02*
D03*
Y88880D02*
D03*
X139700Y96480D02*
D03*
Y30480D02*
D03*
D38*
X92050Y41010D02*
D03*
X73050D02*
D03*
X92050Y80010D02*
D03*
X82550Y80010D02*
D03*
X73050Y80010D02*
D03*
M02*
