G04 Layer_Color=8421504*
%FSLAX44Y44*%
%MOMM*%
G71*
G01*
G75*
%ADD10R,5.0000X1.4730*%
G04:AMPARAMS|DCode=11|XSize=0.5mm|YSize=0.6mm|CornerRadius=0mm|HoleSize=0mm|Usage=FLASHONLY|Rotation=315.000|XOffset=0mm|YOffset=0mm|HoleType=Round|Shape=Rectangle|*
%AMROTATEDRECTD11*
4,1,4,-0.3889,-0.0353,0.0353,0.3889,0.3889,0.0353,-0.0353,-0.3889,-0.3889,-0.0353,0.0*
%
%ADD11ROTATEDRECTD11*%

G04:AMPARAMS|DCode=12|XSize=0.3mm|YSize=0.5mm|CornerRadius=0mm|HoleSize=0mm|Usage=FLASHONLY|Rotation=45.000|XOffset=0mm|YOffset=0mm|HoleType=Round|Shape=Rectangle|*
%AMROTATEDRECTD12*
4,1,4,0.0707,-0.2828,-0.2828,0.0707,-0.0707,0.2828,0.2828,-0.0707,0.0707,-0.2828,0.0*
%
%ADD12ROTATEDRECTD12*%

%ADD13R,0.5000X0.6000*%
%ADD14R,2.0000X2.0000*%
%ADD15R,5.0000X1.0000*%
%ADD16R,5.0000X1.4000*%
%ADD17R,1.8000X1.2000*%
%ADD18R,0.6000X0.8000*%
%ADD19R,0.6000X0.5000*%
%ADD20R,0.8000X0.6000*%
%ADD21R,1.3000X1.0500*%
%ADD22O,0.6000X2.2000*%
%ADD23R,0.6000X1.3000*%
%ADD24O,0.6000X1.3000*%
G04:AMPARAMS|DCode=25|XSize=0.95mm|YSize=0.9mm|CornerRadius=0mm|HoleSize=0mm|Usage=FLASHONLY|Rotation=45.000|XOffset=0mm|YOffset=0mm|HoleType=Round|Shape=Rectangle|*
%AMROTATEDRECTD25*
4,1,4,-0.0177,-0.6541,-0.6541,-0.0177,0.0177,0.6541,0.6541,0.0177,-0.0177,-0.6541,0.0*
%
%ADD25ROTATEDRECTD25*%

%ADD29C,0.2540*%
D10*
X222250Y96520D02*
D03*
D11*
X178074Y194584D02*
D03*
X185146Y201656D02*
D03*
X156484Y213634D02*
D03*
X163556Y220706D02*
D03*
D12*
X165165Y204405D02*
D03*
X170115Y199455D02*
D03*
D13*
X116840Y138510D02*
D03*
Y148510D02*
D03*
X49530Y49610D02*
D03*
Y59610D02*
D03*
X60960Y223600D02*
D03*
Y233600D02*
D03*
X73660Y223600D02*
D03*
Y233600D02*
D03*
Y100250D02*
D03*
Y90250D02*
D03*
X13970Y129620D02*
D03*
Y139620D02*
D03*
X29210Y129620D02*
D03*
Y139620D02*
D03*
D14*
X173990Y124990D02*
D03*
Y164990D02*
D03*
D15*
X229000Y189230D02*
D03*
D16*
Y231730D02*
D03*
Y146730D02*
D03*
D17*
X199390Y38380D02*
D03*
Y73380D02*
D03*
D18*
X114300Y20740D02*
D03*
Y9740D02*
D03*
X105410Y124040D02*
D03*
Y135040D02*
D03*
X46990Y207860D02*
D03*
Y218860D02*
D03*
X130810Y9740D02*
D03*
Y20740D02*
D03*
D19*
X166290Y19050D02*
D03*
X156290D02*
D03*
X137240Y172720D02*
D03*
X147240D02*
D03*
X83740Y134620D02*
D03*
X73740D02*
D03*
X46910Y233680D02*
D03*
X36910D02*
D03*
D20*
X155360Y110490D02*
D03*
X144360D02*
D03*
X60110Y81280D02*
D03*
X49110D02*
D03*
X147740Y129540D02*
D03*
X136740D02*
D03*
X102020Y233680D02*
D03*
X91020D02*
D03*
D21*
X58420Y124050D02*
D03*
Y104550D02*
D03*
D22*
X168910Y90040D02*
D03*
X156210D02*
D03*
X143510D02*
D03*
X130810D02*
D03*
X168910Y42040D02*
D03*
X156210D02*
D03*
X143510D02*
D03*
X130810D02*
D03*
D23*
X100330Y205670D02*
D03*
D24*
X87630D02*
D03*
X74930D02*
D03*
X62230D02*
D03*
X100330Y153670D02*
D03*
X87630Y153670D02*
D03*
X74930Y153670D02*
D03*
X62230Y153670D02*
D03*
D25*
X36830Y100330D02*
D03*
X24809Y112351D02*
D03*
D29*
X12700Y254000D02*
G03*
X0Y241300I0J-12700D01*
G01*
X254000D02*
G03*
X241300Y254000I-12700J0D01*
G01*
Y0D02*
G03*
X254000Y12700I0J12700D01*
G01*
X0D02*
G03*
X12700Y0I12700J0D01*
G01*
X0Y130810D02*
Y241300D01*
X12700Y254000D02*
X241300D01*
X254000Y12700D02*
Y241300D01*
X12700Y0D02*
X241300D01*
X0Y12700D02*
Y132080D01*
M02*
