M48
;Layer_Color=9474304
;FILE_FORMAT=4:4
METRIC,LZ
;TYPE=PLATED
T1F00S00C0.7000
T2F00S00C0.8000
%
T01
X0002794Y0003302
X0004953
X0002794Y0005842
Y0008382
X0008255Y0005969
X0011049
Y0004064
X0009525Y000127
X0021971Y0004826
X0023749
X0019177Y0015113
X001905Y0022225
X001143Y0021971
X0010414Y0017145
X0004953Y0018796
X0002794Y0018288
Y0015748
Y0020828
X0007747Y0011938
T02
X0013716Y001534
Y002022
M30
